<svg xmlns="http://www.w3.org/2000/svg" viewBox="0 0 1678.82 377.25"><defs><style>.cls-1{font-size:250px;font-family:Sathu, Sathu;letter-spacing:-0.05em;}.cls-2{letter-spacing:-0.03em;}.cls-3{letter-spacing:-0.03em;}.cls-4{letter-spacing:-0.03em;}.cls-5{letter-spacing:-0.04em;}.cls-6{letter-spacing:-0.05em;}.cls-7{letter-spacing:-0.04em;}.cls-8{letter-spacing:-0.03em;}.cls-9{letter-spacing:-0.01em;}</style></defs><title>Asset 1</title><g id="Layer_2" data-name="Layer 2"><g id="Layer_1-2" data-name="Layer 1"><path d="M445.34,123V90.38a10,10,0,0,0-10-10.24h-4.77a7.32,7.32,0,0,0,2.57-5.65,7.55,7.55,0,0,0-7.54-7.54H415.41a9.87,9.87,0,0,0,3.23-7.22A9.75,9.75,0,0,0,408.91,50H366.83a9.75,9.75,0,0,0-9.74,9.74,9.87,9.87,0,0,0,3.23,7.22H350.18a7.55,7.55,0,0,0-7.54,7.54,7.32,7.32,0,0,0,2.57,5.65H310.8a10.39,10.39,0,0,0,2.63-7.34V54.58a10,10,0,0,0-10.05-10.24H292c.65-1.26,1.33-2.88.7-4.42V24.63a16.9,16.9,0,0,0-8-13.46,97.28,97.28,0,0,0-90.57,0c-4.45,2.46-7.59,8.48-8.22,13.44V39.91a10.3,10.3,0,0,0,1.33,4.43H175.87c-5.71,0-10.68,4.53-10.68,10.24V72.79a10.94,10.94,0,0,0,3.26,7.34h-7.62a7,7,0,0,0,1.24-3.83,6.81,6.81,0,0,0-1.83-4.55A8.74,8.74,0,0,0,156.72,55H124.05a8.77,8.77,0,0,0-6.91,3.37A8.77,8.77,0,0,0,110.24,55H77.57a8.74,8.74,0,0,0-.34,17.48A6.66,6.66,0,0,0,76,76.32a7,7,0,0,0,1.24,3.81H63.13a7.84,7.84,0,0,0,.15-1.32,5.33,5.33,0,0,0-1.19-3.38A7.8,7.8,0,0,0,60.3,60H25.75A7.8,7.8,0,0,0,23.44,75.3a5.35,5.35,0,0,0-1.3,3.53,7.74,7.74,0,0,0,.15,1.3H10.68C5,80.14,0,84.66,0,90.38V123a10.36,10.36,0,0,0,5.08,8.9,4.26,4.26,0,0,0-1.94,3.46V270a4.65,4.65,0,0,0,.63,1.93H3.64a2.94,2.94,0,0,0-3,2.87v17.4c0,1.65,1,2.76,5.72,4.64a24.4,24.4,0,0,0,8.1,1.91H199.22c12.57,4.4,26.19,7.39,40.41,7.39s27.84-3,40.41-7.39H438.43c5.3,0,6.91-4,6.91-6.55v-17.4l.31-3.06h-2.83a3.21,3.21,0,0,0-.84.17,5.22,5.22,0,0,0,.22-1.92V135.4a4.39,4.39,0,0,0-1.79-3.55,10.36,10.36,0,0,0,4.93-8.81m-78.52-67.4h42.08a4.08,4.08,0,1,1,0,8.17H366.83a4.08,4.08,0,0,1,0-8.17m-16.65,17h75.37a1.88,1.88,0,1,1,0,3.77H350.18a1.88,1.88,0,1,1,0-3.77m85.11,13.19a4.36,4.36,0,0,1,4.4,4.59V123a4.56,4.56,0,0,1-4.4,4.83H334.09A97.8,97.8,0,0,0,313.43,105V87.87a9.64,9.64,0,0,0,.07-2.08ZM292,283.65h0l-.64-1.31-2.55-4.54c1.75-1,3.46-2.12,5.14-3.23l-.48-.95.54.91,2.79,4.28.68,1h0l-.7-1.06c-1.77,1.17-3.57,2.48-5.41,3.54Zm-32,3.85h0c.63-.2,1.9-.42,2.84-.66-.94.24-2.21.46-2.84.66m-20.41-14.9a80.78,80.78,0,1,1,80.78-80.78,80.87,80.87,0,0,1-80.78,80.78m-9.55,16.61h0l.05,0ZM154.32,129.94l0,0c1.26-1.74,2.61-3.47,4-5.15l0,0,1,.83q2-2.46,4.21-4.78l3.74,3.5q-2.07,2.21-4,4.54l.85.7,0,0-.83-.71-4-3.28-1-.83,0,0c-1.39,1.68-2.73,3.41-4,5.15l0,0Zm16.53-42.07a4.44,4.44,0,0,1,.86-2.08h25.88a118,118,0,0,0-26.74,14.72Zm136.93,0v12.64a102,102,0,0,0-26.11-14.72h25.88a4.06,4.06,0,0,1,.23,2.08m4.1,178.85L308.33,263l-.74-.77,0,0h0l0,0,.74.77q2.18-2.1,4.22-4.33l3.78,3.47q-2.15,2.35-4.45,4.56m14.79-27.89-1-.53,0,0c1-1.77,1.88-3.59,2.71-5.41l0,0h0v0c-.84,1.81-1.75,3.64-2.71,5.41l0,0,1,.53,4.51,2.44q-1.52,2.81-3.21,5.51l1.11.69,0,0c-1.14,1.83-2.36,3.66-3.61,5.42l0,0h0l0,0c1.26-1.77,2.47-3.59,3.61-5.42l0,0-1.11-.69-4.47-2.71c1.07-1.71,2.15-3.45,3.11-5.23m2.61-86.33h0l1-.41-1,.43v0m8.13,3.39,1.33-.49-1.33.56c.73,2,1.39,4,2,6.09l1.23-.35v0c.62,2.08,1.17,4.21,1.66,6.3v0h0v0c-.48-2.08-1-4.21-1.66-6.29v0l-1.23.37-4.92,1.46c-.58-1.94-1.21-4-1.9-5.88l-1,.25,1-.25Zm7.11,42.41-1.12-.08-5-.31-1-.07,1.11.07c.12-2,.19-4,.19-6.08h.06l5.17,0h0c0,2.14-.25,4.26-.38,6.37Zm-1.29,13.12v-.07c-.4,2.12-.87,4.21-1.39,6.31h0l0,0-1.2-.31q-.78,3.1-1.75,6.12L334,221.89q.92-2.87,1.66-5.82l5,1.25,1.2.3h0v0c.53-2.1,1-4.16,1.39-6.27v.08Zm0-30.26c.22,2.08.48,4.12.57,6.23l-5.06.21-1.09,0,1,0c-.09-2-.27-4-.47-6l-1.18.12,1.13-.12ZM342,211h0l-5-.94q.55-3,.93-6l5.09.72c-.26,2.1-.59,4.14-1,6.21m1.58-36.55h0Zm-1.54.17-4.86.84-1,.18,1.07-.18q-.5-3-1.18-5.94l-1.11.26h0l1.1-.25,5-1.15c.48,2.06.59,4.15.94,6.25l.93-.2h0Zm-10.55-16.7c-.24-.63-.49-1.26-.73-1.88.25.62.5,1.24.73,1.88Zm-.65,69.41,1,.41,4.78,1.86c-.78,2-1.61,4-2.51,5.92l-4.65-2.1h0c.85-1.88,1.64-3.74,2.38-5.62Zm-10.59,21.9,4.17,3h0q-1.85,2.59-3.86,5.06l-4-3.23q1.9-2.35,3.66-4.8m10-97.15h0q-1.22-2.77-2.6-5.45l-1,.51v-.06l1-.48,4.56-2.33,1.15-.58h0l-1.15.59q1.45,2.82,2.73,5.73Zm-5.6-11h0c-1-1.72-2.1-3.34-3.22-5l4.21-2.87q1.79,2.63,3.43,5.36Zm-6.89-10-.85.66,0,0h0l0,0,.85-.66c-1.24-1.59-2.53-3.18-3.86-4.7l3.85-3.37,1-.84h0l0,0-1,.85q2.1,2.39,4.06,4.9ZM226,94.94c-2,.27-4,.6-5.85,1,1.88-.4,3.9-.74,5.85-1Zm-11.83,2.38h0c-1.94.53-3.89,1.12-5.79,1.75h0c1.9-.63,3.84-1.23,5.79-1.75h0l-.29-1.09-1.33-5c2-.55,4.11-1,6.2-1.47l-.25-1.24h0c2.12-.43,4.28-.8,6.41-1.1h0c-2.14.3-4.3.67-6.41,1.1h0l.25,1.24,1.08,5,.34,1.39-.34-1.39c-2,.41-4,.88-5.92,1.4Zm-11.46,3.86h0l-.42-1-1.94-4.75c2-.8,3.95-1.55,6-2.23L208,98h0c-1.92.65-3.81,1.36-5.67,2.12Zm-10.87,5.24h0ZM181.69,113h0l-.65-.89-3-4.13h0c1.7-1.26,3.46-2.46,5.24-3.61l-.7-1.09h0c1.8-1.17,3.68-2.3,5.57-3.36h0c-1.9,1.06-3.77,2.19-5.57,3.36h0l.7,1.09,2.78,4.31q-2.55,1.65-5,3.45Zm-10,6.94-3.52-3.73c1.54-1.46,3-2.87,4.62-4.23l3.35,3.94,0,0q-2.3,1.93-4.48,4m5.54-13c-1.75,1.29-3.6,2.63-5.24,4,1.63-1.36,3.42-2.71,5.16-4l.06,0v0ZM191,105.45h0L188.62,101c1.85-1,3.81-2,5.73-3l2.09,4.62c-1.82.88-3.61,1.82-5.49,2.8m34.92-11.61-.15,0-.86-5.08h0c1.88-.29,4.34-.53,6.47-.69l0-1.25h0l.11,1.24.4,5.22.09,1.25-.09-1.24c-2,.16-4,.33-6,.61M238,92.77h0l-.18-5.05,1.71,0c1.58,0,3.17-.08,4.73,0l.08-1.39-.06,1.39-.25,5.19v.06c-1.48-.07-3-.11-4.46-.11-.53,0-1.05-.07-1.58-.06M250.94,87l0-.11,0,.07Zm-.67,6.4.54-5.11v0c2.12.23,4.23.65,6.31,1l.21-1.11-.21,1.12-.86,5-.18,1,.18-1.09c-2-.34-4-.59-6-.81l-.12,1.16h0Zm5.38,1.93h.24c2,.33,4.08.73,6,1.19H262l.29-1.11,1.18-5,.27-1.13,0,0-.28,1.17q3.11.73,6.15,1.64l-1.48,4.93-.32,1.08.32-1.08c-1.92-.58-3.87-1.12-5.84-1.59l-.26,1.1h0c-1.95-.46-4.15-.86-6.13-1.2ZM275.75,93H276c-.87-.32-1.63-.63-2.51-.93.88.3,1.58.61,2.45.93Zm-2.14,7.11h0l0,0c-1.88-.7-3.82-1.24-5.73-1.87,1.92.63,3.85,1.16,5.73,1.86M274,99l1.78-4.82h0q3,1.12,5.92,2.42l.53-1.18h0c2,.88,4,1.83,5.87,2.83h0c-1.92-1-3.89-1.95-5.87-2.83h0l-.53,1.18-2.09,4.76-.44,1.07.44-1.07c-1.84-.82-3.71-1.62-5.61-2.33l-.27.72Zm13.55.42v0q2.83,1.47,5.55,3.11l.67-1.11,0,.11,0-.06-.67,1.09-2.64,4.38-.55.91.55-.92q-2.58-1.55-5.27-3Zm10.87,6.62.54-.92h0l-.54,1c1.74,1.2,3.53,2.43,5.2,3.74l-3.11,4c-1.59-1.24-3.28-2.44-4.94-3.58ZM308.71,114l.87-1h0l-.87,1q2.38,2.12,4.63,4.37L309.71,122l-.76.76,0,0h0l0,0,.76-.75q-2.14-2.14-4.4-4.15ZM155.38,130.71h0l4.15,3,.87.78-.87-.71c-1.18,1.62-2.32,3.24-3.4,4.94h0L151.79,136q1.72-2.69,3.59-5.26m6.82,130.65,3.82-3.42q2,2.25,4.18,4.37L166.6,266q-2.27-2.23-4.4-4.6M142.94,153.18l4.76,1.91c-.75,1.87-1.44,3.82-2.08,5.75l-4.87-1.56h0c.67-1.88,1.4-4.08,2.19-6l-1.19-.5v0Zm7.71,92.69q-1.65-2.71-3.14-5.54l4.54-2.39q1.42,2.68,3,5.26Zm-13-80.78v0c.55-2.1,1.18-4.26,1.85-6.3v-.09h0v.09c-.67,2-1.29,4.17-1.85,6.28v0l1.23.33,5,1.3q-.77,2.92-1.35,5.9l-5-1h-.06c.41-2.09.92-4.16,1.45-6.2Zm-2.6,12.75h0Zm1.37.2,5.07.67h0c-.26,2-.35,4-.5,6l-5.18-.35h-.06q.23-3.19.65-6.33m4.19,13h0c0,.31,0,.54,0,.85,0,1.7,0,3.36.13,5l-5.12.27h0q-.14-2.67-.14-5.38c0-.33-.07-.65-.06-1Zm-6.27,6.35.06,0c.11,2.15.29,4.32.53,6.44v0l1.26-.14,5.06-.58c.23,2,.53,4,.88,6l1.13-.2V209l-1.12.17-5.05.87-.36.06.36-.07c-.37-2.08-.67-4.19-.91-6.31l-1.26.14v0c-.24-2.12-.42-4.29-.53-6.44l-.06,0Zm1.52,12.85c.37,2.1.81,4.36,1.31,6.42-.49-2.06-.93-4.25-1.31-6.35v-.07Zm1.33,6.5h0l-.1.2Zm6.24-1.4h0c.47,1.92,1,3.77,1.57,5.65l-4.89,1.5c-.62-2-1.18-3.92-1.69-6ZM147,226.82l1-.4h0l-1,.39q1.07,2.83,2.31,5.58l-4.68,2.11q-1.3-2.89-2.43-5.87Zm11,29.58q-2-2.49-3.8-5.1l4.21-2.93q1.73,2.48,3.61,4.85Zm-9.54-114.85L153,144l.94.52,0,0v0c1-1.76,2-3.52,3.1-5.21h0v0c-1.08,1.69-2.12,3.44-3.1,5.2v0l0,0L153,144q-1.47,2.65-2.77,5.39l-4.63-2.2q1.37-2.89,2.92-5.67m26.26,125q2.28,2,4.69,3.83l-3.12,4.07q-2.53-1.94-4.93-4Zm9.7,7.45q2.51,1.69,5.13,3.23l-2.6,4.42q-2.75-1.62-5.39-3.4Zm10.55,6.2q2.69,1.37,5.47,2.57h0l-2,4.71q-2.93-1.27-5.77-2.71Zm5.92,1.57v0h0c1.15.5,2.28,1,3.42,1.43-1.16-.45-2.31-.92-3.46-1.42m5.2,3.29c1.89.68,3.87,1.3,5.81,1.87l.35-1.09h0l-.31,1.08-1.43,4.93-.35,1.15.35-1.17c-2-.6-4.06-1.24-6.05-2Zm73.79,2.84-2-4.73q2.79-1.17,5.49-2.52l2.27,4.6q-2.84,1.41-5.78,2.65M302.16,275l-3-4c1.6-1.2,3.09-2.46,4.61-3.75l3.3,3.87c-1.6,1.36-3.24,2.61-4.92,3.88M191.58,24.65c.63-2.67,2.39-6.88,5.29-8.48a91.48,91.48,0,0,1,85.12,0,11.21,11.21,0,0,1,5.06,8.49V39.93c.63,2.25-1.66,4.4-4,4.4H196.23a4.8,4.8,0,0,1-4.65-4.42ZM170.85,54.58a4.89,4.89,0,0,1,5-4.59H303.38a4.36,4.36,0,0,1,4.4,4.59V72.79a4.56,4.56,0,0,1-4.4,4.83H175.87a5.1,5.1,0,0,1-5-4.83ZM89.57,73.23h58.91c4.85,0,7.94,2.06,7.94,3.14s-3.09,3.14-7.94,3.14H89.57c-4.85,0-7.94-2.06-7.94-3.14s3.09-3.14,7.94-3.14m31-9.85a2.9,2.9,0,0,1,3.14-2.83V59.41h.3v1.2l-.19,4.33h3V60.66h3.44L130.13,65l3,0V60.66h3.44L136.41,65l3,0V60.66h3.44L142.69,65l3,0V60.66h3.44L149,65l3,0V60.66h3.44L155.25,65l1.78,0V60.62a3.56,3.56,0,0,1,2.65,3.13,3.05,3.05,0,0,1-3,3.2H124.05c-1.63,0-3.45-1.37-3.45-3Zm-4.18-4.06h0l-1.79,0Zm-42,4.44a3.18,3.18,0,0,1,2.5-3.1l-.19,4.28,3,0V60.66h3.44L83,65l3,0V60.66h3.44L89.3,65l3,0V60.66h3.44L95.58,65l3,0V60.66h3.44L101.86,65l3,0V60.66h3.44L108.14,65l3,0V60.83a3.12,3.12,0,0,1,2,2.92,3.05,3.05,0,0,1-3,3.2H77.57a3.2,3.2,0,0,1-3.14-3.2m-49,1.86-.2,3.71,3,0V65.6l-2.71,0h-.19l.33.06.07.06H60.3a2.2,2.2,0,1,1,0,4.4H25.75a2.25,2.25,0,0,1-2.2-2.26,2.1,2.1,0,0,1,1.88-2.23M5.65,90.38a4.89,4.89,0,0,1,5-4.59H165.75a8.52,8.52,0,0,0-.55,2.08V105a111.12,111.12,0,0,0-20,22.82H10.68a5.1,5.1,0,0,1-5-4.83Zm8.79,202.69c-2.39,0-6.28-1.56-8.17-2.44V278.37a35.86,35.86,0,0,0,8.17,1.51H166.89a119.58,119.58,0,0,0,19.79,13.19Zm202.11,1.59,0-.05c-2.11-.47-4.23-1-6.31-1.66,2.07.63,4.2,1.19,6.31,1.66l0,0,.28-1.23,1.12-5q2.95.66,6,1.14l.18-1.12-.18,1.12-.83,5.06q-3.16-.51-6.26-1.2Zm6.33,1.21h0c2.11.34,3.88.62,6.39.82h0c-2.51-.21-4.28-.49-6.39-.83Zm6.64-.37-.12,1.21.12-1.26.49-5.11c2,.19,4,.43,6,.5l-.18,5.18,0,1.32,0-1.37c-2.13-.08-4.25-.26-6.36-.47m12.9.49,0,1.35,0-1.35-.15-5.22c2-.05,4.06-.23,6.06-.41l-.08-1.2.1,1.2.55,5.14.21,1.26-.21-1.23c-2.1.18-4.27.4-6.41.46m19.32-1,0-.12-.27-1.25q-3.09.66-6.25,1.14l-.77-5.07-.16-1.1v0l0,0,.1,0,.07,0v1.11c1.88-.3,3.77-.77,5.65-1.19h0l1.24,5.07.35,1.27.07.14c2.1-.45,4.25-.79,6.33-1.42-2.09.63-4.19,1-6.29,1.43m6-2.79-1.39-5-.3-1h0v0l.29,1c2-.55,3.87-1.17,5.77-1.83l1.68,4.84c-2,.7-4,1.46-6.07,2m171.93-.08c0,.28.22.94-1.26.94H292.58a119.58,119.58,0,0,0,19.79-13.19H438.43a2.94,2.94,0,0,0,1.26-.23ZM290.09,191.82a50.46,50.46,0,1,1-50.46-50.46,50.46,50.46,0,0,1,50.46,50.46M56.63,69.31l0-3.74,3.08,0v3.74Zm-12.56,0,0-3.74,3.08,0v3.74Zm6.28,0,0-3.74,3.08,0v3.74Zm-12.56,0,0-3.74,3.08,0v3.74Zm-6.28,0,0-3.74,3.08,0v3.74Zm349.14-6.88-3,0,0-5.62,3.08,0Zm12.56,0-3,0,0-5.62,3.08,0Zm-6.28,0-3,0,0-5.62,3.08,0Zm12.56,0-3,0,0-5.62,3.08,0Zm6.28,0-3,0,0-5.62,3.08,0Zm4.4,0-1.15,0,0-5.62,1.19,0Zm-42.08,0-3,0,0-5.62,3.08,0Zm6.28,0-3,0,0-5.62,3.08,0ZM280.77,38.68H197.23v-14c0-.94,1.61-2.77,2.38-3.24a86.49,86.49,0,0,1,39.84-9.75,85.07,85.07,0,0,1,39.48,9.75,5.33,5.33,0,0,1,1.84,3.24Z"/><text class="cls-1" transform="translate(500.98 283.45)">F<tspan class="cls-2" x="126.26" y="0">l</tspan><tspan class="cls-3" x="176.26" y="0">a</tspan><tspan class="cls-4" x="307" y="0">s</tspan><tspan class="cls-5" x="426.2" y="0">h</tspan><tspan class="cls-6" x="562.78" y="0">.</tspan><tspan class="cls-7" x="625.3" y="0">c</tspan><tspan class="cls-8" x="752.78" y="0">o</tspan><tspan class="cls-9" x="896.91" y="0">m</tspan></text></g></g></svg>